<?xml version="1.0" encoding="UTF-8"?>
<svg width="72px" height="106px" viewBox="0 0 72 106" version="1.1" xmlns="http://www.w3.org/2000/svg" xmlns:xlink="http://www.w3.org/1999/xlink">
    <title>learn_numbers_1</title>
    <g id="Casestudy" stroke="none" stroke-width="1" fill="none" fill-rule="evenodd">
        <g id="Artboard" transform="translate(-437.000000, -8206.000000)" fill="#FFFFFF" fill-rule="nonzero">
            <g id="Learnings" transform="translate(160.000000, 7573.000000)">
                <g id="Table" transform="translate(100.000000, 562.000000)">
                    <g id="Group-8" transform="translate(177.000000, 4.000000)">
                        <path d="M69.45,173 C70.35,173 71.1,172.4 71.1,171.35 L71.1,162.95 C71.1,162.05 70.35,161.3 69.45,161.3 L47.7,161.3 C44.25,161.3 42,159.2 42,155.75 L42,87.95 C42,86.9 41.7,86 40.95,85.25 L24.6,68.9 C23.85,68.15 22.95,67.85 21.9,67.85 L2.1,67.85 C1.2,67.85 0.45,68.45 0.45,69.5 L0.45,77.9 C0.45,78.8 1.2,79.55 2.1,79.55 L24.75,79.55 C28.2,79.55 30.3,81.65 30.3,85.1 L30.3,152.9 C30.3,153.95 30.6,154.85 31.5,155.6 L47.7,171.95 C48.6,172.7 49.35,173 50.4,173 L69.45,173 Z M28.8,173 C29.7,173 30.3,172.25 30.3,171.35 L30.3,162.95 C30.3,162.05 29.7,161.3 28.8,161.3 L2.1,161.3 C1.2,161.3 0.6,162.05 0.6,162.95 L0.6,171.35 C0.6,172.25 1.2,173 2.1,173 L28.8,173 Z" id="learn_numbers_1"></path>
                    </g>
                </g>
            </g>
        </g>
    </g>
</svg>