<?xml version="1.0" encoding="UTF-8"?>
<svg width="85px" height="105px" viewBox="0 0 85 105" version="1.1" xmlns="http://www.w3.org/2000/svg" xmlns:xlink="http://www.w3.org/1999/xlink">
    <title>learn_numbers_2</title>
    <g id="Casestudy" stroke="none" stroke-width="1" fill="none" fill-rule="evenodd">
        <g id="Artboard" transform="translate(-429.000000, -8459.000000)" fill="#FFFFFF" fill-rule="nonzero">
            <g id="Learnings" transform="translate(160.000000, 7573.000000)">
                <g id="Table" transform="translate(100.000000, 562.000000)">
                    <g id="Group-9" transform="translate(169.000000, 256.000000)">
                        <path d="M83.075,173 C83.975,173 84.575,172.4 84.575,171.35 L84.575,162.95 C84.575,162.05 83.975,161.3 83.075,161.3 L17.675,161.3 C14.225,161.3 11.975,159.2 11.975,155.75 L11.975,146.3 L31.325,126.95 L63.875,126.95 C65.675,126.95 66.425,126.65 67.175,125.9 L83.525,109.55 C84.275,108.8 84.575,108.05 84.575,107 L84.575,88.1 C84.575,87.05 84.275,86.15 83.525,85.4 L67.175,69.05 C66.425,68.3 65.675,68 64.625,68 L21.425,68 C20.375,68 19.475,68.3 18.725,69.05 L2.375,85.4 C1.625,86.15 1.325,86.9 1.325,88.1 L1.325,100.7 C1.325,101.75 2.075,102.35 2.975,102.35 L11.375,102.35 C12.275,102.35 13.025,101.75 13.025,100.7 L13.025,85.25 C13.025,81.8 15.125,79.7 18.575,79.7 L67.325,79.7 C70.775,79.7 73.025,81.8 73.025,85.25 L73.025,109.7 C73.025,113.15 70.775,115.4 67.325,115.4 L28.325,115.4 C27.125,115.4 26.525,115.7 25.775,116.45 L1.475,140.9 C0.575,141.65 0.275,142.55 0.275,143.6 L0.275,152.9 C0.275,153.95 0.575,154.7 1.475,155.45 L17.675,171.8 C18.575,172.55 19.325,173 20.375,173 L83.075,173 Z" id="learn_numbers_2"></path>
                    </g>
                </g>
            </g>
        </g>
    </g>
</svg>