<?xml version="1.0" encoding="UTF-8"?>
<svg width="84px" height="106px" viewBox="0 0 84 106" version="1.1" xmlns="http://www.w3.org/2000/svg" xmlns:xlink="http://www.w3.org/1999/xlink">
    <title>learn_numbers_3</title>
    <g id="Casestudy" stroke="none" stroke-width="1" fill="none" fill-rule="evenodd">
        <g id="Artboard" transform="translate(-429.000000, -8711.000000)" fill="#FFFFFF" fill-rule="nonzero">
            <g id="Learnings" transform="translate(160.000000, 7573.000000)">
                <g id="Table" transform="translate(100.000000, 562.000000)">
                    <g id="Group-10" transform="translate(169.000000, 508.000000)">
                        <path d="M51.65,131.3 L82.85,100.1 C83.6,99.2 83.9,98.45 83.9,97.4 L83.9,88.1 C83.9,87.05 83.6,86.3 82.85,85.55 L66.5,69.2 C65.75,68.45 65,68 63.95,68 L20.6,68 C19.55,68 18.65,68.3 17.9,69.05 L1.55,85.4 C0.8,86.15 0.5,87.05 0.5,88.1 L0.5,100.7 C0.5,101.75 1.25,102.35 2.15,102.35 L10.55,102.35 C11.45,102.35 12.2,101.75 12.2,100.7 L12.2,85.25 C12.2,81.8 14.3,79.7 17.9,79.7 L66.65,79.7 C70.1,79.7 72.35,81.8 72.35,85.25 L72.35,94.7 L43.7,123.2 C42.95,123.8 42.95,124.85 43.7,125.6 L49.25,131.3 C49.85,132.05 50.9,131.9 51.65,131.3 Z M63.95,173.15 C65,173.15 65.75,172.85 66.5,172.1 L82.85,155.75 C83.6,155 83.9,154.1 83.9,153.05 L83.9,134.3 C83.9,133.25 83.6,132.5 82.85,131.75 L73.85,122.75 C72.95,121.85 72.35,122.15 72.35,123.35 L72.35,155.75 C72.35,159.2 70.1,161.45 66.65,161.45 L17.9,161.3 C14.3,161.3 12.2,159.2 12.2,155.75 L12.2,140.3 C12.2,139.25 11.45,138.65 10.55,138.65 L2.15,138.65 C1.25,138.65 0.5,139.25 0.5,140.3 L0.5,152.9 C0.5,153.95 0.8,154.7 1.7,155.6 L18.05,171.95 C18.8,172.7 19.55,173 20.75,173 L63.95,173.15 Z" id="learn_numbers_3"></path>
                    </g>
                </g>
            </g>
        </g>
    </g>
</svg>